<svg xmlns="http://www.w3.org/2000/svg" width="20" height="20" fill="currentColor"
                        viewBox="0 0 512 512">
                        <path d="M505 442.7L405.3 343c28.4-35.3 45.7-80 45.7-128.5C451 96.5 
               355.5 1 236.5 1S22 96.5 22 214.5 117.5 428 236.5 428c48.4 
               0 93.2-17.3 128.5-45.7l99.7 99.7c9.4 9.4 24.6 9.4 33.9 
               0l6.4-6.4c9.4-9.4 9.4-24.6 0-33.9zM236.5 386c-94.6 0-171.5-76.9-171.5-171.5S141.9 
               43 236.5 43s171.5 76.9 171.5 171.5S331.1 386 236.5 386z" />
                    </svg>